# xmcd
#
# Track frame offsets: 
#        150
#        4932
#        30466
#        54419
#        76820
#        93234
#        123945
#        127988
#        155557
#        180716
#        213944
#        238824
#        264888
#
# Disc length: 4048 seconds
#
# Revision: 0
# Processed by: cddbd v1.5.2PL0 Copyright (c) Steve Scherf et al.
# Submitted via: ExactAudioCopyFreeDBPlugin 1.0
#
DISCID=9b0fce0d
DTITLE=Vasco Faé;Manoblues - Muuuuuuuuuuuuuu!!!
DYEAR=2016
DGENRE=Blues
TTITLE0=Opening
TTITLE1=The Blues Is Alright
TTITLE2=Get Down Tonight
TTITLE3=Key To The Highway
TTITLE4=Roll Over Beethoven
TTITLE5=Stand By Me
TTITLE6=Iron
TTITLE7=Suspicious Mind
TTITLE8=Superstitious
TTITLE9=Gravity
TTITLE10=Every Breath You Take
TTITLE11=Marry You
TTITLE12=You've Got a Friend
EXTD=
EXTT0=
EXTT1=
EXTT2=
EXTT3=
EXTT4=
EXTT5=
EXTT6=
EXTT7=
EXTT8=
EXTT9=
EXTT10=
EXTT11=
EXTT12=
PLAYORDER=
